---
title: Kerabu - Inventory
---
erDiagram
    CUSTOMER ||--o{ ORDER : places
    Inventory {
        string name
        string custNumber
        string sector
    }
    ORDER ||--|{ LINE-ITEM : contains
    Recipe {
        int orderNumber
        string deliveryAddress
    }
    Shopping {
        string productCode
        int quantity
        float pricePerUnit
    }
    Identity {

    }
    Notification {

    }
